<svg width="217" height="34" viewBox="0 0 217 34" fill="none" xmlns="http://www.w3.org/2000/svg">
<g clip-path="url(#clip0)">
<path d="M72.6959 6.98901V31.0094C72.6959 32.2686 72.4961 32.4701 71.2725 32.4701C70.823 32.4701 70.3736 32.4701 69.9241 32.4701C69.6579 32.4995 69.3928 32.4069 69.2017 32.2178C69.0105 32.0287 68.9137 31.7631 68.9377 31.4942C68.9377 31.3431 68.9377 31.192 68.9377 31.0409V2.03383C68.9377 0.736788 69.1125 0.541603 70.4173 0.560492C73.4575 0.610862 72.4899 0.107159 74.2815 2.54383C79.8251 10.0994 85.3479 17.6549 90.8499 25.2105C90.9497 25.349 91.0684 25.4812 91.3181 25.7897V2.02753C91.3181 0.730492 91.4804 0.566788 92.7976 0.566788H93.9213C94.7641 0.566788 95.0513 0.875307 95.0637 1.70012C95.0637 1.80086 95.0637 1.9016 95.0637 2.00234V31.0912C95.0637 32.2749 94.8577 32.4953 93.6591 32.4764C90.8499 32.426 91.7239 32.9235 90.0383 30.5875C84.424 22.8809 78.8284 15.1637 73.2515 7.43605C73.1204 7.25975 72.9893 7.09605 72.8519 6.92605L72.6959 6.98901Z" fill="black"/>
<path d="M162.286 19.7136V20.6643C162.286 24.1903 162.286 27.7162 162.286 31.2358C162.286 32.1929 162.018 32.4951 161.1 32.4951C160.576 32.4951 160.051 32.4951 159.527 32.4951C159.26 32.5259 158.994 32.4352 158.801 32.2476C158.608 32.06 158.507 31.7952 158.528 31.5255C158.528 31.3555 158.528 31.1729 158.528 30.9966V2.07767C158.528 0.761746 158.703 0.585449 159.989 0.585449C163.953 0.585449 167.923 0.585449 171.894 0.585449C176.395 0.642116 179.978 3.50063 180.84 7.79471C181.532 11.2388 180.933 14.4121 178.374 16.9936C177.069 18.257 175.398 19.0666 173.604 19.3043L172.818 19.4617C174.628 22.2132 176.382 24.8955 178.143 27.5777C178.842 28.648 179.579 29.6995 180.234 30.7951C180.429 31.1518 180.493 31.5665 180.415 31.9662C180.296 32.4321 179.791 32.4825 179.354 32.4699C176.326 32.3943 177.231 32.961 175.608 30.4236C173.417 27.0362 171.276 23.611 169.097 20.211C168.966 20.0032 168.716 19.7325 168.516 19.7262C166.462 19.6947 164.421 19.7136 162.286 19.7136ZM162.286 16.301C165.539 16.301 168.704 16.3577 171.862 16.301C173.149 16.2242 174.36 15.665 175.258 14.7332C177.123 12.8814 177.682 10.0711 176.669 7.6373C175.67 5.3665 173.42 3.92025 170.957 3.96656C168.242 3.96656 165.52 3.96656 162.804 3.96656C162.63 3.97623 162.457 3.99726 162.286 4.02952V16.301Z" fill="black"/>
<path d="M31.2375 16.805C31.2554 9.99987 35.3362 3.87573 41.5768 1.28861C47.8175 -1.29851 54.9888 0.160961 59.7465 4.9864C64.5041 9.81183 65.9109 17.0528 63.3107 23.3323C60.7106 29.6118 54.6157 33.6931 47.8685 33.6728C43.4425 33.6694 39.2001 31.8882 36.0792 28.7229C32.9584 25.5576 31.2161 21.2688 31.2375 16.805ZM34.6962 19.802C34.8523 20.3876 34.9647 20.9857 35.1644 21.5587C36.4029 24.9633 38.9321 27.7321 42.1952 29.2554C45.4584 30.7787 49.188 30.9318 52.563 29.6809C57.4761 27.792 60.3665 24.115 61.3029 18.9016C61.5277 17.3582 61.4961 15.7879 61.2093 14.255C59.9607 7.68484 54.1885 2.98606 47.5575 3.14199C40.9264 3.29792 35.3776 8.26292 34.434 14.8846C34.1431 16.5221 34.2329 18.2054 34.6962 19.802Z" fill="black"/>
<path d="M112.968 0.0949272C116.126 0.0125343 119.232 0.913956 121.864 2.67641C122.315 2.99194 122.746 3.33467 123.156 3.70271C123.422 3.86156 123.596 4.13851 123.625 4.44826C123.655 4.75802 123.536 5.06344 123.306 5.27048C123.025 5.62937 122.738 5.97567 122.445 6.32196C121.908 6.95159 121.483 6.98937 120.853 6.44159C119.198 5.00541 117.187 4.05188 115.034 3.68382C112.977 3.2124 110.826 3.39947 108.879 4.219C107.379 4.80011 106.275 6.10883 105.945 7.69456C105.564 9.15414 106.128 10.6983 107.356 11.5605C108.642 12.4338 110.071 13.0731 111.576 13.4494C113.767 14.1168 115.99 14.7086 118.143 15.4642C119.359 15.9166 120.511 16.5262 121.571 17.2775C123.93 18.9209 124.823 21.3386 124.692 24.1531C124.517 28.189 122.413 30.8901 118.686 32.1179C113.249 33.906 108.018 33.3772 103.192 30.0842C102.641 29.6913 102.123 29.2533 101.644 28.7746C101.409 28.6153 101.259 28.3571 101.236 28.073C101.213 27.7888 101.319 27.5094 101.525 27.3138C101.787 26.9423 102.074 26.596 102.349 26.2372C102.936 25.4942 103.385 25.4501 104.097 26.0923C105.876 27.7682 108.08 28.9145 110.465 29.4042C113.007 30.0356 115.689 29.7413 118.037 28.5731C119.973 27.6352 121.066 25.5233 120.722 23.3849C120.596 22.0747 119.824 20.9167 118.668 20.306C117.262 19.5633 115.801 18.9318 114.298 18.4172C112.063 17.649 109.766 17.0572 107.531 16.2827C106.023 15.8 104.674 14.9119 103.629 13.7138C100.882 10.4712 101.5 5.27048 104.965 2.56937C107.271 0.840306 110.097 -0.0336544 112.968 0.0949272Z" fill="black"/>
<path d="M134.768 14.488H147.253C148.084 14.488 148.377 14.7776 148.396 15.615C148.396 15.9613 148.396 16.3202 148.396 16.6728C148.396 17.5291 148.084 17.8376 147.21 17.8376H134.724V29.1205H150.281C151.349 29.1205 151.53 29.3283 151.561 30.3798C151.561 30.7324 151.561 31.085 151.561 31.4376C151.593 31.7185 151.497 31.999 151.298 32.199C151.1 32.399 150.822 32.4966 150.543 32.4639H132.321C131.191 32.4639 130.985 32.2498 130.985 31.085V1.93314C130.985 0.780917 131.197 0.560547 132.339 0.560547H150.244C151.424 0.560547 151.617 0.768325 151.617 1.98351C151.617 3.93536 151.617 3.93536 149.651 3.93536H134.787L134.768 14.488Z" fill="black"/>
<path d="M201.372 28.3904L211.766 1.57443C212.135 0.63628 212.209 0.58591 213.183 0.58591H214.906C215.905 0.58591 216.255 1.10221 215.88 2.05295C215.175 3.87887 214.451 5.69221 213.72 7.51184L204.162 31.3874C203.744 32.4389 203.701 32.4704 202.571 32.4704H200.073C198.944 32.4704 198.887 32.4326 198.475 31.4C196.27 25.855 194.064 20.3101 191.858 14.7652C190.193 10.5676 188.529 6.37011 186.864 2.17258C186.414 1.04554 186.733 0.567021 187.938 0.567021C188.487 0.595376 189.037 0.595376 189.586 0.567021C190.201 0.465313 190.787 0.866178 190.922 1.47998C192.17 4.76035 193.419 8.03443 194.711 11.3085L201.135 27.8552C201.197 28 201.26 28.1322 201.372 28.3904Z" fill="black"/>
<path d="M16.0739 0.321188C20.5188 0.136022 24.7883 2.08356 27.5856 5.5723C27.8204 5.79268 27.9279 6.11832 27.8711 6.43667C27.8143 6.75502 27.6009 7.02239 27.3047 7.14637L27.1798 7.22193C25.0011 8.44341 25.4131 8.38045 23.8399 6.80637C19.2765 2.26674 12.0848 3.0286 8.10813 6.90082C2.78974 12.2398 2.61591 20.8668 7.71484 26.4193C11.9599 30.8834 19.9195 31.5823 24.5017 26.2304C25.126 25.5316 25.3757 25.4938 26.1747 25.9219C26.5306 26.1171 26.8802 26.2997 27.2298 26.5012C28.0164 26.9545 28.1225 27.5212 27.5357 28.2138C25.5875 30.6807 22.8403 32.3771 19.7759 33.0053C13.6892 34.1386 8.31414 32.6904 4.08778 27.9682C1.04131 24.5619 -0.0574142 20.4127 0.15484 15.8919C0.24986 12.4162 1.4589 9.065 3.60085 6.34045C6.30827 2.90243 10.321 0.766955 14.6631 0.45341C15.0813 0.358966 15.5058 0.358966 16.0739 0.321188Z" fill="black"/>
<path d="M61.3338 18.9015C60.3662 24.1148 57.4757 27.7667 52.5938 29.6808C49.2188 30.9317 45.4893 30.7786 42.2261 29.2553C38.963 27.7319 36.4338 24.9632 35.1953 21.5585C34.9956 20.9856 34.8832 20.3874 34.7271 19.8019C34.8395 19.0715 34.9331 18.3411 35.0642 17.6108C36.1387 11.6925 41.0062 7.2307 46.9499 6.71582C52.8936 6.20094 58.444 9.76022 60.5034 15.4071C60.843 16.5558 61.1203 17.7223 61.3338 18.9015ZM47.8619 29.5045C50.2038 29.5123 52.3718 28.2595 53.5495 26.218C54.7271 24.1765 54.7356 21.6563 53.5714 19.6069C52.4072 17.5575 50.2475 16.2901 47.9056 16.2822C45.5638 16.2744 43.3955 17.5272 42.2179 19.5687C41.0402 21.6103 41.0319 24.1304 42.196 26.1798C43.3602 28.2292 45.5201 29.4966 47.8619 29.5045ZM39.1656 25.8022C38.1356 21.0989 39.3779 17.2582 43.6479 14.8656C46.7361 12.9826 50.6742 13.3127 53.4117 15.6841C57.1574 18.6811 57.8128 22.61 56.0835 27.0552C59.2049 23.9071 60.0853 17.6108 56.2335 13.0334C54.3775 10.8078 51.7064 9.43572 48.8302 9.23046C45.9539 9.02521 43.118 10.0043 40.9698 11.9441C36.4126 15.9611 36.5874 22.4463 39.1656 25.8022ZM39.2468 26.2304H39.3092V25.9911H39.2468V26.2304Z" fill="black" fill-opacity="0.6"/>
</g>
<defs>
<clipPath id="clip0">
<rect width="216" height="34" fill="white" transform="translate(0.129883)"/>
</clipPath>
</defs>
</svg>
