<svg width="263" height="36" viewBox="0 0 263 36" fill="none" xmlns="http://www.w3.org/2000/svg">
<path fill-rule="evenodd" clip-rule="evenodd" d="M3.05919 26.9235V10.3862H0.997625C0.93787 9.69898 0.893054 9.02674 0.863176 8.36943C0.833298 7.71212 0.818359 7.03988 0.818359 6.35269C0.818359 5.6655 0.833298 4.99325 0.863176 4.33594C0.893054 3.67863 0.93787 3.00639 0.997625 2.3192H16.0111C16.0709 3.00639 16.1157 3.67863 16.1456 4.33594C16.1755 4.99325 16.1904 5.6655 16.1904 6.35269C16.1904 7.03988 16.1755 7.71212 16.1456 8.36943C16.1157 9.02674 16.0709 9.69898 16.0111 10.3862H13.9496V26.9235H16.0111C16.0709 27.6107 16.1157 28.2829 16.1456 28.9402C16.1755 29.5975 16.1904 30.2698 16.1904 30.9569C16.1904 31.6441 16.1755 32.3164 16.1456 32.9737C16.1157 33.631 16.0709 34.3032 16.0111 34.9904H0.997625C0.93787 34.3032 0.893054 33.631 0.863176 32.9737C0.833298 32.3164 0.818359 31.6441 0.818359 30.9569C0.818359 30.2698 0.833298 29.5975 0.863176 28.9402C0.893054 28.2829 0.93787 27.6107 0.997625 26.9235H3.05919ZM19.534 27.4613V18.1842H17.4724C17.4127 17.5568 17.3679 16.9294 17.338 16.3019C17.3081 15.6745 17.2932 15.0471 17.2932 14.4197C17.2932 13.7922 17.3081 13.1648 17.338 12.5374C17.3679 11.9099 17.4127 11.2825 17.4724 10.6551H28.318L28.4525 12.4477C28.7214 12.2087 29.0575 11.9473 29.4609 11.6634C29.8642 11.3796 30.3422 11.1182 30.895 10.8792C31.4477 10.6401 32.0752 10.4385 32.7773 10.2741C33.4794 10.1098 34.2637 10.0276 35.1301 10.0276C36.2655 10.0276 37.3187 10.192 38.2897 10.5206C39.2607 10.8493 40.1048 11.3423 40.8218 11.9996C41.5389 12.6569 42.0991 13.4561 42.5025 14.3972C42.9058 15.3384 43.1075 16.4364 43.1075 17.6913V27.4613H45.169C45.2288 28.0887 45.2736 28.7161 45.3035 29.3436C45.3334 29.971 45.3483 30.5984 45.3483 31.2258C45.3483 31.8533 45.3334 32.4807 45.3035 33.1081C45.2736 33.7356 45.2288 34.363 45.169 34.9904H32.9341V20.1562C32.9341 19.5586 32.837 19.0806 32.6428 18.722C32.4486 18.3635 32.1125 18.1842 31.6345 18.1842C31.4552 18.1842 31.2535 18.2141 31.0294 18.2739C30.8054 18.3336 30.5962 18.4755 30.402 18.6996C30.2078 18.9237 30.0435 19.2449 29.909 19.6632C29.7746 20.0815 29.7073 20.6491 29.7073 21.3662V34.9904H17.4724C17.4127 34.363 17.3679 33.7356 17.338 33.1081C17.3081 32.4807 17.2932 31.8533 17.2932 31.2258C17.2932 30.5984 17.3081 29.971 17.338 29.3436C17.3679 28.7161 17.4127 28.0887 17.4724 27.4613H19.534ZM46.1822 18.1842H44.1206C44.0609 17.5568 44.0161 16.9294 43.9862 16.3019C43.9563 15.6745 43.9414 15.0471 43.9414 14.4197C43.9414 13.7922 43.9563 13.1648 43.9862 12.5374C44.0161 11.9099 44.0609 11.2825 44.1206 10.6551H57.6104C57.6702 11.2526 57.715 11.8651 57.7449 12.4925C57.7747 13.12 57.7897 13.7325 57.7897 14.33C57.7897 14.9276 57.7747 15.5326 57.7449 16.1451C57.715 16.7576 57.6702 17.3626 57.6104 17.9602H56.5796L58.7756 24.8619L60.9716 17.9602H59.9409C59.8811 17.3626 59.8363 16.7576 59.8064 16.1451C59.7765 15.5326 59.7616 14.9276 59.7616 14.33C59.7616 13.7325 59.7765 13.12 59.8064 12.4925C59.8363 11.8651 59.8811 11.2526 59.9409 10.6551H72.7584C72.8181 11.2825 72.863 11.9099 72.8928 12.5374C72.9227 13.1648 72.9377 13.7922 72.9377 14.4197C72.9377 15.0471 72.9227 15.6745 72.8928 16.3019C72.863 16.9294 72.8181 17.5568 72.7584 18.1842H70.6968L63.7951 34.9904H53.1287L46.1822 18.1842ZM74.9368 4.56003C74.9368 3.21552 75.3924 2.18475 76.3037 1.46769C77.2149 0.750618 78.7013 0.39209 80.7629 0.39209C82.8245 0.39209 84.3183 0.750618 85.2446 1.46769C86.1708 2.18475 86.6339 3.21552 86.6339 4.56003C86.6339 5.90453 86.1708 6.92783 85.2446 7.62996C84.3183 8.33208 82.8245 8.68314 80.7629 8.68314C76.8788 8.68314 74.9368 7.30878 74.9368 4.56003ZM76.2364 27.4613V18.1842H74.1749C74.1151 17.5568 74.0703 16.9294 74.0404 16.3019C74.0106 15.6745 73.9956 15.0471 73.9956 14.4197C73.9956 13.7922 74.0106 13.1648 74.0404 12.5374C74.0703 11.9099 74.1151 11.2825 74.1749 10.6551H86.4098V27.4613H88.4713C88.5311 28.0887 88.5759 28.7161 88.6058 29.3436C88.6357 29.971 88.6506 30.5984 88.6506 31.2258C88.6506 31.8533 88.6357 32.4807 88.6058 33.1081C88.5759 33.7356 88.5311 34.363 88.4713 34.9904H74.1749C74.1151 34.363 74.0703 33.7356 74.0404 33.1081C74.0106 32.4807 73.9956 31.8533 73.9956 31.2258C73.9956 30.5984 74.0106 29.971 74.0404 29.3436C74.0703 28.7161 74.1151 28.0887 74.1749 27.4613H76.2364ZM89.7086 26.789C90.3061 26.7293 90.9112 26.6844 91.5236 26.6546C92.1361 26.6247 92.7561 26.6097 93.3835 26.6097C94.011 26.6097 94.6309 26.6247 95.2434 26.6546C95.8559 26.6844 96.4609 26.7293 97.0585 26.789V27.282C97.0585 27.9393 97.3797 28.4696 98.022 28.873C98.6644 29.2763 99.5533 29.478 100.689 29.478C101.674 29.478 102.332 29.3585 102.66 29.1195C102.989 28.8804 103.153 28.5966 103.153 28.268C103.153 27.6106 102.66 27.1625 101.674 26.9235L97.1033 25.9823C96.1173 25.7732 95.1837 25.4893 94.3023 25.1308C93.4209 24.7723 92.6441 24.2942 91.9718 23.6967C91.2996 23.0991 90.7692 22.3522 90.3808 21.4558C89.9924 20.5595 89.7982 19.4541 89.7982 18.1394C89.7982 16.6754 90.0895 15.4355 90.6721 14.4197C91.2547 13.4038 91.9942 12.5822 92.8906 11.9547C93.7869 11.3273 94.7803 10.8717 95.8708 10.5878C96.9614 10.304 97.9996 10.1621 98.9856 10.1621C100.42 10.1621 101.6 10.2965 102.526 10.5654C103.452 10.8343 104.184 11.1331 104.722 11.4618L104.767 10.6551C105.364 10.5953 105.962 10.5505 106.559 10.5206C107.157 10.4907 107.755 10.4758 108.352 10.4758C108.95 10.4758 109.547 10.4907 110.145 10.5206C110.742 10.5505 111.34 10.5953 111.937 10.6551V18.3187C111.31 18.3785 110.683 18.4233 110.055 18.4531C109.428 18.483 108.785 18.498 108.128 18.498C107.471 18.498 106.821 18.483 106.179 18.4531C105.536 18.4233 104.916 18.3785 104.319 18.3187V17.7809C104.319 17.3925 104.102 16.9966 103.669 16.5933C103.236 16.1899 102.496 15.9882 101.45 15.9882C100.644 15.9882 100.069 16.1077 99.7251 16.3468C99.3815 16.5858 99.2097 16.8995 99.2097 17.2879C99.2097 17.5867 99.3815 17.8407 99.7251 18.0498C100.069 18.2589 100.494 18.4233 101.002 18.5428L105.125 19.3943C106.231 19.6333 107.277 19.9396 108.263 20.313C109.248 20.6865 110.1 21.1869 110.817 21.8144C111.534 22.4418 112.102 23.2186 112.52 24.1448C112.938 25.0711 113.148 26.2213 113.148 27.5957C113.148 29.0896 112.871 30.337 112.318 31.3379C111.766 32.3388 111.034 33.1455 110.122 33.758C109.211 34.3705 108.18 34.8112 107.03 35.0801C105.88 35.349 104.722 35.4834 103.557 35.4834C102.033 35.4834 100.778 35.3564 99.7923 35.1025C98.8063 34.8485 97.9847 34.5423 97.3274 34.1837L97.2826 34.9904C96.6551 35.0502 96.0202 35.095 95.3779 35.1249C94.7355 35.1548 94.1006 35.1697 93.4732 35.1697C92.8159 35.1697 92.1735 35.1548 91.5461 35.1249C90.9186 35.095 90.3061 35.0502 89.7086 34.9904V26.789ZM115.147 4.56003C115.147 3.21552 115.602 2.18475 116.514 1.46769C117.425 0.750618 118.911 0.39209 120.973 0.39209C123.034 0.39209 124.528 0.750618 125.454 1.46769C126.381 2.18475 126.844 3.21552 126.844 4.56003C126.844 5.90453 126.381 6.92783 125.454 7.62996C124.528 8.33208 123.034 8.68314 120.973 8.68314C117.089 8.68314 115.147 7.30878 115.147 4.56003ZM116.446 27.4613V18.1842H114.385C114.325 17.5568 114.28 16.9294 114.25 16.3019C114.22 15.6745 114.205 15.0471 114.205 14.4197C114.205 13.7922 114.22 13.1648 114.25 12.5374C114.28 11.9099 114.325 11.2825 114.385 10.6551H126.62V27.4613H128.681C128.741 28.0887 128.786 28.7161 128.816 29.3436C128.846 29.971 128.86 30.5984 128.86 31.2258C128.86 31.8533 128.846 32.4807 128.816 33.1081C128.786 33.7356 128.741 34.363 128.681 34.9904H114.385C114.325 34.363 114.28 33.7356 114.25 33.1081C114.22 32.4807 114.205 31.8533 114.205 31.2258C114.205 30.5984 114.22 29.971 114.25 29.3436C114.28 28.7161 114.325 28.0887 114.385 27.4613H116.446ZM132.204 26.9235V10.3862H130.143C130.083 9.69898 130.038 9.02674 130.008 8.36943C129.978 7.71212 129.963 7.03988 129.963 6.35269C129.963 5.6655 129.978 4.99325 130.008 4.33594C130.038 3.67863 130.083 3.00639 130.143 2.3192H145.022C145.081 3.00639 145.126 3.67863 145.156 4.33594C145.186 4.99325 145.201 5.6655 145.201 6.35269C145.201 7.03988 145.186 7.71212 145.156 8.36943C145.126 9.02674 145.081 9.69898 145.022 10.3862H142.467V26.789H147.935V21.5903C148.682 21.5305 149.429 21.4857 150.176 21.4558C150.922 21.426 151.684 21.411 152.461 21.411C153.238 21.411 153.992 21.426 154.724 21.4558C155.456 21.4857 156.211 21.5305 156.988 21.5903V34.9904H130.143C130.083 34.3032 130.038 33.631 130.008 32.9737C129.978 32.3164 129.963 31.6441 129.963 30.9569C129.963 30.2698 129.978 29.5975 130.008 28.9402C130.038 28.2829 130.083 27.6107 130.143 26.9235H132.204ZM181.036 34.4078C179.423 34.8261 177.877 35.1324 176.398 35.3266C174.919 35.5208 173.283 35.6179 171.491 35.6179C169.1 35.6179 167.054 35.2743 165.351 34.5871C163.648 33.8999 162.243 32.9737 161.138 31.8085C160.032 30.6432 159.226 29.2838 158.718 27.7302C158.21 26.1765 157.956 24.5183 157.956 22.7555C157.956 21.1122 158.195 19.5287 158.673 18.005C159.151 16.4812 159.883 15.1293 160.869 13.9491C161.855 12.7689 163.125 11.8203 164.678 11.1032C166.232 10.3862 168.084 10.0276 170.236 10.0276C172.506 10.0276 174.404 10.3862 175.927 11.1032C177.451 11.8203 178.661 12.7465 179.558 13.8819C180.454 15.0172 181.089 16.2795 181.462 17.6689C181.836 19.0582 182.022 20.44 182.022 21.8144V25.2653H168.219C168.488 26.1616 169.048 26.8712 169.9 27.394C170.751 27.9169 171.998 28.1783 173.642 28.1783C175.165 28.1783 176.592 28.0663 177.922 27.8422C179.251 27.6181 180.29 27.4164 181.036 27.2372V34.4078ZM172.79 19.9769C172.79 17.497 171.998 16.2571 170.415 16.2571C168.831 16.2571 167.995 17.497 167.905 19.9769H172.79ZM196.436 24.593L195.36 24.7275C194.225 24.8768 193.455 25.1831 193.052 25.6462C192.649 26.1093 192.447 26.6396 192.447 27.2372C192.447 27.7451 192.596 28.1634 192.895 28.492C193.194 28.8207 193.642 28.985 194.24 28.985C195.704 28.985 196.436 28.268 196.436 26.8338V24.593ZM197.018 33.2426C196.749 33.4816 196.428 33.7356 196.055 34.0045C195.681 34.2734 195.241 34.5273 194.733 34.7663C194.225 35.0054 193.635 35.1996 192.962 35.349C192.29 35.4984 191.536 35.573 190.699 35.573C189.624 35.573 188.615 35.4311 187.674 35.1473C186.733 34.8635 185.904 34.4078 185.187 33.7804C184.47 33.153 183.902 32.3537 183.484 31.3827C183.065 30.4117 182.856 29.239 182.856 27.8646C182.856 26.2811 183.17 24.9739 183.797 23.9432C184.425 22.9124 185.284 22.0833 186.374 21.4558C187.465 20.8284 188.772 20.3578 190.296 20.0441C191.82 19.7304 193.478 19.4989 195.27 19.3495L196.301 19.2598V18.9461C196.301 18.2589 196.107 17.751 195.719 17.4224C195.33 17.0937 194.658 16.9294 193.702 16.9294C192.447 16.9294 191.155 17.1161 189.825 17.4896C188.496 17.8631 186.845 18.4531 184.873 19.2598V12.3581C186.247 11.7605 187.786 11.2227 189.489 10.7447C191.192 10.2667 193.209 10.0276 195.539 10.0276C196.466 10.0276 197.549 10.1098 198.789 10.2741C200.028 10.4385 201.201 10.8194 202.307 11.417C203.412 12.0145 204.346 12.8959 205.108 14.0611C205.87 15.2264 206.25 16.8099 206.25 18.8117V27.4613H208.312C208.372 28.0887 208.417 28.7161 208.447 29.3436C208.476 29.971 208.491 30.5984 208.491 31.2258C208.491 31.8533 208.476 32.4807 208.447 33.1081C208.417 33.7356 208.372 34.363 208.312 34.9904H197.198L197.018 33.2426ZM209.549 26.789C210.147 26.7293 210.752 26.6844 211.364 26.6546C211.977 26.6247 212.597 26.6097 213.224 26.6097C213.852 26.6097 214.472 26.6247 215.084 26.6546C215.697 26.6844 216.302 26.7293 216.899 26.789V27.282C216.899 27.9393 217.22 28.4696 217.863 28.873C218.505 29.2763 219.394 29.478 220.529 29.478C221.515 29.478 222.173 29.3585 222.501 29.1195C222.83 28.8804 222.994 28.5966 222.994 28.268C222.994 27.6106 222.501 27.1625 221.515 26.9235L216.944 25.9823C215.958 25.7732 215.024 25.4893 214.143 25.1308C213.262 24.7723 212.485 24.2942 211.813 23.6967C211.14 23.0991 210.61 22.3522 210.222 21.4558C209.833 20.5595 209.639 19.4541 209.639 18.1394C209.639 16.6754 209.93 15.4355 210.513 14.4197C211.095 13.4038 211.835 12.5822 212.731 11.9547C213.628 11.3273 214.621 10.8717 215.712 10.5878C216.802 10.304 217.84 10.1621 218.826 10.1621C220.26 10.1621 221.441 10.2965 222.367 10.5654C223.293 10.8343 224.025 11.1331 224.563 11.4618L224.608 10.6551C225.205 10.5953 225.803 10.5505 226.4 10.5206C226.998 10.4907 227.595 10.4758 228.193 10.4758C228.791 10.4758 229.388 10.4907 229.986 10.5206C230.583 10.5505 231.181 10.5953 231.778 10.6551V18.3187C231.151 18.3785 230.523 18.4233 229.896 18.4531C229.269 18.483 228.626 18.498 227.969 18.498C227.312 18.498 226.662 18.483 226.019 18.4531C225.377 18.4233 224.757 18.3785 224.159 18.3187V17.7809C224.159 17.3925 223.943 16.9966 223.51 16.5933C223.076 16.1899 222.337 15.9882 221.291 15.9882C220.485 15.9882 219.909 16.1077 219.566 16.3468C219.222 16.5858 219.05 16.8995 219.05 17.2879C219.05 17.5867 219.222 17.8407 219.566 18.0498C219.909 18.2589 220.335 18.4233 220.843 18.5428L224.966 19.3943C226.072 19.6333 227.117 19.9396 228.103 20.313C229.089 20.6865 229.941 21.1869 230.658 21.8144C231.375 22.4418 231.943 23.2186 232.361 24.1448C232.779 25.0711 232.988 26.2213 232.988 27.5957C232.988 29.0896 232.712 30.337 232.159 31.3379C231.606 32.3388 230.875 33.1455 229.963 33.758C229.052 34.3705 228.021 34.8112 226.871 35.0801C225.721 35.349 224.563 35.4834 223.398 35.4834C221.874 35.4834 220.619 35.3564 219.633 35.1025C218.647 34.8485 217.825 34.5423 217.168 34.1837L217.123 34.9904C216.496 35.0502 215.861 35.095 215.219 35.1249C214.576 35.1548 213.941 35.1697 213.314 35.1697C212.657 35.1697 212.014 35.1548 211.387 35.1249C210.759 35.095 210.147 35.0502 209.549 34.9904V26.789ZM236.287 27.4613V8.54869H234.226C234.166 7.92126 234.121 7.29384 234.091 6.6664C234.061 6.03897 234.046 5.41154 234.046 4.78411C234.046 4.15667 234.061 3.52925 234.091 2.90181C234.121 2.27438 234.166 1.64696 234.226 1.01952H246.46V11.4618C247.058 11.1032 247.79 10.7746 248.656 10.4758C249.523 10.177 250.554 10.0276 251.749 10.0276C252.914 10.0276 253.99 10.192 254.976 10.5206C255.962 10.8493 256.821 11.3423 257.553 11.9996C258.285 12.6569 258.852 13.4561 259.256 14.3972C259.659 15.3384 259.861 16.4364 259.861 17.6913V27.4613H261.922C261.982 28.0887 262.027 28.7161 262.057 29.3436C262.087 29.971 262.101 30.5984 262.101 31.2258C262.101 31.8533 262.087 32.4807 262.057 33.1081C262.027 33.7356 261.982 34.363 261.922 34.9904H249.687V20.1562C249.687 19.5586 249.59 19.0806 249.396 18.722C249.202 18.3635 248.866 18.1842 248.388 18.1842C248.208 18.1842 248.007 18.2141 247.783 18.2739C247.558 18.3336 247.349 18.4755 247.155 18.6996C246.961 18.9237 246.797 19.2449 246.662 19.6632C246.528 20.0815 246.46 20.6491 246.46 21.3662V34.9904H234.226C234.166 34.363 234.121 33.7356 234.091 33.1081C234.061 32.4807 234.046 31.8533 234.046 31.2258C234.046 30.5984 234.061 29.971 234.091 29.3436C234.121 28.7161 234.166 28.0887 234.226 27.4613H236.287Z" fill="black"/>
</svg>
