<?xml version="1.0" encoding="UTF-8"?>
<svg width="30px" height="24px" viewBox="0 0 30 24" version="1.1" xmlns="http://www.w3.org/2000/svg" xmlns:xlink="http://www.w3.org/1999/xlink">
    <!-- Generator: Sketch 54.1 (76490) - https://sketchapp.com -->
    <title>Combined Shape</title>
    <desc>Created with Sketch.</desc>
    <g id="Page-1" stroke="none" stroke-width="1" fill="none" fill-rule="evenodd">
        <path d="M2.5,4.83409355 C1.3954305,4.83409355 0.5,3.93866305 0.5,2.83409355 C0.5,1.72952405 1.3954305,0.83409355 2.5,0.83409355 L28,0.83409355 C29.1045695,0.83409355 30,1.72952405 30,2.83409355 C30,3.93866305 29.1045695,4.83409355 28,4.83409355 L2.5,4.83409355 Z M7,14.257025 C5.8954305,14.257025 5,13.3615945 5,12.257025 C5,11.1524555 5.8954305,10.257025 7,10.257025 L23.4995096,10.257025 C24.6040791,10.257025 25.4995096,11.1524555 25.4995096,12.257025 C25.4995096,13.3615945 24.6040791,14.257025 23.4995096,14.257025 L7,14.257025 Z M11,23.6799564 C9.8954305,23.6799564 9,22.7845259 9,21.6799564 C9,20.575387 9.8954305,19.6799564 11,19.6799564 L19.2497548,19.6799564 C20.3543243,19.6799564 21.2497548,20.575387 21.2497548,21.6799564 C21.2497548,22.7845259 20.3543243,23.6799564 19.2497548,23.6799564 L11,23.6799564 Z" id="Combined-Shape" fill="#FFFFFF" fill-rule="nonzero"></path>
    </g>
</svg>